<?xml version="1.0" encoding="UTF-8" standalone="no"?>
<!-- Generator: Adobe Illustrator 18.0.0, SVG Export Plug-In . SVG Version: 6.00 Build 0)  -->

<svg
   xmlns:dc="http://purl.org/dc/elements/1.1/"
   xmlns:cc="http://creativecommons.org/ns#"
   xmlns:rdf="http://www.w3.org/1999/02/22-rdf-syntax-ns#"
   xmlns:svg="http://www.w3.org/2000/svg"
   xmlns="http://www.w3.org/2000/svg"
   xmlns:sodipodi="http://sodipodi.sourceforge.net/DTD/sodipodi-0.dtd"
   xmlns:inkscape="http://www.inkscape.org/namespaces/inkscape"
   version="1.1"
   id="Layer_1"
   x="0px"
   y="0px"
   width="120"
   height="64"
   viewBox="0 0 120 64"
   enable-background="new 0 0 120 64"
   xml:space="preserve"
   inkscape:version="0.48.4 r9939"
   sodipodi:docname="icons (2).svg"><metadata
   id="metadata3062"><rdf:RDF><cc:Work
       rdf:about=""><dc:format>image/svg+xml</dc:format><dc:type
         rdf:resource="http://purl.org/dc/dcmitype/StillImage" /></cc:Work></rdf:RDF></metadata><defs
   id="defs3060" /><sodipodi:namedview
   pagecolor="#ffffff"
   bordercolor="#000000"
   borderopacity="0.94117647"
   objecttolerance="10"
   gridtolerance="10"
   guidetolerance="10"
   inkscape:pageopacity="0"
   inkscape:pageshadow="2"
   inkscape:window-width="1920"
   inkscape:window-height="1028"
   id="namedview3058"
   showgrid="false"
   showguides="true"
   inkscape:guide-bbox="true"
   inkscape:zoom="13.392857"
   inkscape:cx="12.244544"
   inkscape:cy="26.782222"
   inkscape:window-x="-8"
   inkscape:window-y="-8"
   inkscape:window-maximized="1"
   inkscape:current-layer="Layer_1"
   showborder="true"
   inkscape:showpageshadow="false"><sodipodi:guide
     orientation="1,0"
     position="0,38.976"
     id="guide3100" /><sodipodi:guide
     orientation="1,0"
     position="30.016,35.84"
     id="guide3102" /><sodipodi:guide
     orientation="1,0"
     position="60.032,37.632"
     id="guide3104" /><sodipodi:guide
     orientation="1,0"
     position="90.048,43.157333"
     id="guide3106" /><sodipodi:guide
     orientation="1,0"
     position="120.064,35.84"
     id="guide3108" /><sodipodi:guide
     orientation="1,0"
     position="149.93067,49.130667"
     id="guide3110" /><sodipodi:guide
     orientation="1,0"
     position="179.94667,45.994667"
     id="guide3112" /><sodipodi:guide
     orientation="0,1"
     position="179.94667,40.021333"
     id="guide3114" /><sodipodi:guide
     orientation="1,0"
     position="45.845333,40.021333"
     id="guide4117" /><sodipodi:guide
     orientation="1,0"
     position="72.426666,30.464"
     id="guide4119" /><sodipodi:guide
     orientation="1,0"
     position="101.84533,31.210667"
     id="guide4121" /><sodipodi:guide
     orientation="1,0"
     position="131.56267,27.776"
     id="guide4123" /><sodipodi:guide
     orientation="1,0"
     position="161.728,17.770667"
     id="guide4125" /><sodipodi:guide
     orientation="0,1"
     position="33.152,5.6746666"
     id="guide4127" /><sodipodi:guide
     orientation="0,1"
     position="37.109333,55.850666"
     id="guide3841" /></sodipodi:namedview>
<path
   d="m 24,11 c -0.6,0.3 -1.2,0.4 -1.9,0.5 0.7,-0.4 1.2,-1 1.4,-1.8 -0.6,0.4 -1.3,0.6 -2.1,0.8 -0.6,-0.6 -1.5,-1 -2.4,-1 -1.8,0 -3.3,1.5 -3.3,3.3 0,0.3 0,0.5 0.1,0.7 -2.7,-0.1 -5.1,-1.4 -6.8,-3.4 -0.3,0.5 -0.4,1 -0.4,1.7 0,1.1 0.6,2.1 1.5,2.7 -0.5,0 -1,-0.2 -1.5,-0.4 l 0,0 c 0,1.6 1.1,2.9 2.6,3.2 -0.4,0.3 -1,0.3 -1.5,0 0.4,1.3 1.6,2.3 3.1,2.3 -1.1,0.9 -2.5,1.4 -4.1,1.4 -0.3,0 -0.5,0 -0.8,0 1.5,0.9 3.2,1.5 5,1.5 6,0 9.3,-5 9.3,-9.3 0,-0.1 0,-0.3 0,-0.4 C 23,12.3 23.6,11.7 24,11 z"
   id="path3030"
   style="fill:#383838;fill-opacity:1"
   inkscape:connector-curvature="0" />
<path
   d="m 46,24 h 3 v -8 h 2 l 1,-3 h -3 v -1.3 c 0,-0.3 0.2,-0.7 0.7,-0.7 1,0 2.9,0 2.3,0 V 8 C 52,8 50.4,8 48.7,8 47,8 46,9.3 46,10.8 V 13 h -2 v 3 h 2 v 8 z"
   id="path3032"
   inkscape:connector-curvature="0"
   style="fill:#383838;fill-opacity:1" />
<path
   d="m 46,56 h 3 v -8 h 2 l 1,-3 h -3 v -1.3 c 0,-0.3 0.2,-0.7 0.7,-0.7 1,0 2.9,0 2.3,0 v -3 c 0,0 -1.6,0 -3.3,0 C 47,40 46,41.3 46,42.8 V 45 h -2 v 3 h 2 v 8 z"
   id="path3034"
   style="fill:#ffffff;fill-opacity:1"
   inkscape:connector-curvature="0" />



<path
   d="m 109.1,11.8 c -0.2,-1.7 -1.4,-3 -2.5,-3 -1.1,0 -2,1.3 -1.8,2.9 0.2,1.7 1.4,3 2.5,3.1 1.1,0 1.9,-1.4 1.8,-3 z m -1.9,6.2 c -1.8,0 -3.4,1.1 -3.4,2.6 0,1.5 1.3,2.6 3,2.6 2.5,0 3.4,-1.1 3.4,-2.6 0,-0.2 0,-0.3 -0.1,-0.5 -0.2,-0.8 -0.9,-1.2 -1.8,-1.9 C 108,18.1 107.6,18 107.2,18 z m 2,-9.2 c 1,0.4 1.5,1.6 1.5,2.9 0,1 -0.6,1.9 -1.3,2.6 -0.7,0.6 -0.9,0.9 -0.9,1.4 0,0.5 0.8,1.2 1.2,1.5 1.2,1 1.6,1.8 1.6,3.2 0,1.8 -1.6,3.6 -4.5,3.6 -2.6,0 -4.7,-1.1 -4.7,-2.9 0,-1.8 2,-3.6 4.5,-3.6 h 0.8 c -0.3,-0.4 -0.6,-0.8 -0.6,-1.4 0,-0.3 0.1,-0.6 0.2,-1 -0.2,0 -0.3,0 -0.4,0 -2.1,0 -3.5,-1.6 -3.5,-3.6 0,-1.9 1.9,-3.6 4,-3.6 h 4.6 l -1,0.8 -1.5,0.1 0,0 z M 117,12 h -2 v 2 h -1 v -2 h -2 v -1 h 2 V 9 h 1 v 2 h 2 v 1 z"
   id="path3042"
   inkscape:connector-curvature="0"
   style="fill:#383838;fill-opacity:1" />
<path
   d="m 24,43 c -0.6,0.3 -1.2,0.4 -1.9,0.5 0.7,-0.4 1.2,-1 1.4,-1.8 -0.6,0.4 -1.3,0.6 -2.1,0.8 -0.6,-0.6 -1.5,-1 -2.4,-1 -1.8,0 -3.3,1.5 -3.3,3.3 0,0.3 0,0.5 0.1,0.7 -2.7,-0.1 -5.1,-1.4 -6.8,-3.4 -0.3,0.5 -0.4,1 -0.4,1.7 0,1.1 0.6,2.1 1.5,2.7 -0.5,0 -1,-0.2 -1.5,-0.4 l 0,0 c 0,1.6 1.1,2.9 2.6,3.2 -0.4,0.3 -1,0.3 -1.5,0 0.4,1.3 1.6,2.3 3.1,2.3 -1.1,0.9 -2.5,1.4 -4.1,1.4 -0.3,0 -0.5,0 -0.8,0 1.5,0.9 3.2,1.5 5,1.5 6,0 9.3,-5 9.3,-9.3 0,-0.1 0,-0.3 0,-0.4 C 23,44.3 23.6,43.7 24,43 z"
   id="path3044"
   style="fill:#ffffff;fill-opacity:1"
   inkscape:connector-curvature="0" />



<path
   d="m 109.1,43.8 c -0.2,-1.7 -1.4,-3 -2.5,-3 -1.1,0 -2,1.3 -1.8,2.9 0.2,1.7 1.4,3 2.5,3.1 1.1,0 1.9,-1.4 1.8,-3 z m -1.9,6.2 c -1.8,0 -3.4,1.1 -3.4,2.6 0,1.4 1.3,2.6 3,2.6 2.5,0 3.4,-1.1 3.4,-2.6 0,-0.2 0,-0.3 -0.1,-0.5 -0.2,-0.8 -0.9,-1.2 -1.8,-1.9 C 108,50.1 107.6,50 107.2,50 z m 2,-9.2 c 1,0.4 1.5,1.6 1.5,2.9 0,1 -0.6,1.9 -1.3,2.6 -0.7,0.6 -0.9,0.9 -0.9,1.4 0,0.5 0.8,1.2 1.2,1.5 1.2,1 1.6,1.8 1.6,3.2 0,1.8 -1.6,3.6 -4.5,3.6 -2.6,0 -4.7,-1.1 -4.7,-2.9 0,-1.8 2,-3.6 4.5,-3.6 h 0.8 c -0.3,-0.4 -0.6,-0.8 -0.6,-1.4 0,-0.3 0.1,-0.6 0.2,-1 -0.2,0 -0.3,0 -0.4,0 -2.1,0 -3.5,-1.6 -3.5,-3.6 0,-1.9 1.9,-3.6 4,-3.6 h 4.6 l -1,0.8 -1.5,0.1 0,0 z M 117,44 h -2 v 2 h -1 v -2 h -2 v -1 h 2 v -2 h 1 v 2 h 2 v 1 z"
   id="path3052"
   style="fill:#ffffff;fill-opacity:1"
   inkscape:connector-curvature="0" />


<path
   style="fill:#383838;fill-opacity:1"
   inkscape:connector-curvature="0"
   d="m 84.92092,8.1413336 h -9.54317 c -1.69215,0 -3.07642,1.3842665 -3.07642,3.0752084 v 9.545583 c 0,1.690943 1.38427,3.075209 3.07642,3.075209 h 9.54317 c 1.69215,0 3.07641,-1.384266 3.07641,-3.075209 v -9.545583 c 0,-1.6909419 -1.38426,-3.0752084 -3.07641,-3.0752084 z m -0.58015,9.1181694 c 0.85966,0.796873 1.03835,1.185048 1.06733,1.233343 0.35618,0.591015 -0.39361,0.637499 -0.39361,0.637499 l -1.43498,0.01932 c 0,0 -0.30909,0.06158 -0.71477,-0.217329 -0.53668,-0.367045 -1.04258,-1.324501 -1.43679,-1.20014 -0.39964,0.126775 -0.38757,0.988848 -0.38757,0.988848 0,0 0.002,0.122549 -0.0881,0.221555 -0.0984,0.103835 -0.29218,0.0652 -0.29218,0.0652 h -0.64112 c 0,0 -1.41687,0.14549 -2.6647,-1.153052 -1.36072,-1.416866 -2.56207,-4.198076 -2.56207,-4.198076 0,0 -0.0688,-0.169034 0.006,-0.258381 0.0851,-0.100213 0.31513,-0.09901 0.31513,-0.09901 l 1.53458,-0.006 c 0,0 0.14428,0.02596 0.24812,0.102024 0.0857,0.06278 0.13341,0.181108 0.13341,0.181108 0,0 0.24812,0.62784 0.57653,1.19531 0.64112,1.107776 0.93995,1.35046 1.15728,1.231533 0.31754,-0.17326 0.22216,-1.565978 0.22216,-1.565978 0,0 0.006,-0.505894 -0.15998,-0.731072 -0.12798,-0.174467 -0.36946,-0.225781 -0.47631,-0.239665 -0.0869,-0.01147 0.0549,-0.211896 0.23906,-0.301847 0.27649,-0.135227 0.76427,-0.142471 1.3408,-0.137038 0.44854,0.0042 0.57834,0.0326 0.75341,0.07486 0.52943,0.127379 0.34953,0.621199 0.34953,1.804436 0,0.379119 -0.0682,0.912179 0.20526,1.089061 0.11772,0.07607 0.40568,0.01147 1.12408,-1.209799 0.34108,-0.578941 0.59584,-1.259302 0.59584,-1.259302 0,0 0.0567,-0.121342 0.14247,-0.17326 0.0887,-0.05312 0.20888,-0.03683 0.20888,-0.03683 l 1.61608,-0.01026 c 0,0 0.48537,-0.05795 0.56385,0.161186 0.0833,0.230007 -0.18171,0.766689 -0.84155,1.646269 -1.08543,1.444636 -1.20497,1.310616 -0.30607,2.145523 z"
   id="path3074" /><path
   style="fill:#ffffff;fill-opacity:1"
   inkscape:connector-curvature="0"
   d="m 84.936927,39.856 h -9.543173 c -1.69215,0 -3.07642,1.384267 -3.07642,3.075208 v 9.545583 c 0,1.690943 1.38427,3.075209 3.07642,3.075209 h 9.543173 c 1.69215,0 3.07641,-1.384266 3.07641,-3.075209 v -9.545583 c 0,-1.690941 -1.38426,-3.075208 -3.07641,-3.075208 z m -0.58015,9.118169 c 0.85966,0.796873 1.03835,1.185048 1.06733,1.233343 0.35618,0.591015 -0.39361,0.637499 -0.39361,0.637499 l -1.43498,0.01932 c 0,0 -0.30909,0.06158 -0.71477,-0.217329 -0.53668,-0.367045 -1.04258,-1.324501 -1.43679,-1.20014 -0.39964,0.126775 -0.38757,0.988848 -0.38757,0.988848 0,0 0.002,0.122549 -0.0881,0.221555 -0.0984,0.103835 -0.29218,0.0652 -0.29218,0.0652 h -0.641123 c 0,0 -1.41687,0.14549 -2.6647,-1.153052 -1.36072,-1.416866 -2.56207,-4.198076 -2.56207,-4.198076 0,0 -0.0688,-0.169034 0.006,-0.258381 0.0851,-0.100213 0.31513,-0.09901 0.31513,-0.09901 l 1.53458,-0.006 c 0,0 0.14428,0.02596 0.24812,0.102024 0.0857,0.06278 0.13341,0.181108 0.13341,0.181108 0,0 0.24812,0.62784 0.57653,1.19531 0.64112,1.107776 0.93995,1.35046 1.15728,1.231533 0.31754,-0.17326 0.22216,-1.565978 0.22216,-1.565978 0,0 0.006,-0.505894 -0.15998,-0.731072 -0.12798,-0.174467 -0.36946,-0.225781 -0.47631,-0.239665 -0.0869,-0.01147 0.0549,-0.211896 0.23906,-0.301847 0.27649,-0.135227 0.76427,-0.142471 1.3408,-0.137038 0.448543,0.0042 0.578343,0.0326 0.753413,0.07486 0.52943,0.127379 0.34953,0.621199 0.34953,1.804436 0,0.379119 -0.0682,0.912179 0.20526,1.089061 0.11772,0.07607 0.40568,0.01147 1.12408,-1.209799 0.34108,-0.578941 0.59584,-1.259302 0.59584,-1.259302 0,0 0.0567,-0.121342 0.14247,-0.17326 0.0887,-0.05312 0.20888,-0.03683 0.20888,-0.03683 l 1.61608,-0.01026 c 0,0 0.48537,-0.05795 0.56385,0.161186 0.0833,0.230007 -0.18171,0.766689 -0.84155,1.646269 -1.08543,1.444636 -1.20497,1.310616 -0.30607,2.145523 z"
   id="path3074-7" /></svg>