<?xml version="1.0" encoding="UTF-8" standalone="no"?>
<!-- Generator: Adobe Illustrator 18.0.0, SVG Export Plug-In . SVG Version: 6.00 Build 0)  -->

<svg
   xmlns:dc="http://purl.org/dc/elements/1.1/"
   xmlns:cc="http://creativecommons.org/ns#"
   xmlns:rdf="http://www.w3.org/1999/02/22-rdf-syntax-ns#"
   xmlns:svg="http://www.w3.org/2000/svg"
   xmlns="http://www.w3.org/2000/svg"
   xmlns:sodipodi="http://sodipodi.sourceforge.net/DTD/sodipodi-0.dtd"
   xmlns:inkscape="http://www.inkscape.org/namespaces/inkscape"
   version="1.1"
   id="Layer_1"
   x="0px"
   y="0px"
   width="224px"
   height="64px"
   viewBox="0 0 224 64"
   enable-background="new 0 0 224 64"
   xml:space="preserve"
   inkscape:version="0.48.4 r9939"
   sodipodi:docname="socials.svg"><metadata
   id="metadata3062"><rdf:RDF><cc:Work
       rdf:about=""><dc:format>image/svg+xml</dc:format><dc:type
         rdf:resource="http://purl.org/dc/dcmitype/StillImage" /></cc:Work></rdf:RDF></metadata><defs
   id="defs3060" /><sodipodi:namedview
   pagecolor="#ffffff"
   bordercolor="#666666"
   borderopacity="1"
   objecttolerance="10"
   gridtolerance="10"
   guidetolerance="10"
   inkscape:pageopacity="0"
   inkscape:pageshadow="2"
   inkscape:window-width="1920"
   inkscape:window-height="1028"
   id="namedview3058"
   showgrid="false"
   showguides="true"
   inkscape:guide-bbox="true"
   inkscape:zoom="6.6964286"
   inkscape:cx="90.042582"
   inkscape:cy="25.61322"
   inkscape:window-x="-8"
   inkscape:window-y="-8"
   inkscape:window-maximized="1"
   inkscape:current-layer="Layer_1"><sodipodi:guide
     orientation="1,0"
     position="0,38.976"
     id="guide3100" /><sodipodi:guide
     orientation="1,0"
     position="30.016,35.84"
     id="guide3102" /><sodipodi:guide
     orientation="1,0"
     position="60.032,37.632"
     id="guide3104" /><sodipodi:guide
     orientation="1,0"
     position="90.048,43.157333"
     id="guide3106" /><sodipodi:guide
     orientation="1,0"
     position="120.064,35.84"
     id="guide3108" /><sodipodi:guide
     orientation="1,0"
     position="149.93067,49.130667"
     id="guide3110" /><sodipodi:guide
     orientation="1,0"
     position="179.94667,45.994667"
     id="guide3112" /><sodipodi:guide
     orientation="0,1"
     position="179.94667,40.021333"
     id="guide3114" /></sodipodi:namedview>
<path
   fill="#383838"
   d="M24,11c-0.6,0.3-1.2,0.4-1.9,0.5c0.7-0.4,1.2-1,1.4-1.8c-0.6,0.4-1.3,0.6-2.1,0.8c-0.6-0.6-1.5-1-2.4-1  c-1.8,0-3.3,1.5-3.3,3.3c0,0.3,0,0.5,0.1,0.7c-2.7-0.1-5.1-1.4-6.8-3.4c-0.3,0.5-0.4,1-0.4,1.7c0,1.1,0.6,2.1,1.5,2.7  c-0.5,0-1-0.2-1.5-0.4l0,0c0,1.6,1.1,2.9,2.6,3.2c-0.4,0.3-1,0.3-1.5,0c0.4,1.3,1.6,2.3,3.1,2.3c-1.1,0.9-2.5,1.4-4.1,1.4  c-0.3,0-0.5,0-0.8,0c1.5,0.9,3.2,1.5,5,1.5c6,0,9.3-5,9.3-9.3c0-0.1,0-0.3,0-0.4C23,12.3,23.6,11.7,24,11z"
   id="path3030" />
<path
   d="m 46,24 h 3 v -8 h 2 l 1,-3 h -3 v -1.3 c 0,-0.3 0.2,-0.7 0.7,-0.7 1,0 2.9,0 2.3,0 V 8 C 52,8 50.4,8 48.7,8 47,8 46,9.3 46,10.8 V 13 h -2 v 3 h 2 v 8 z"
   id="path3032"
   inkscape:connector-curvature="0"
   style="fill:#383838" />
<path
   fill="#FFFFFF"
   d="M78,56h3v-8h2l1-3h-3v-1.3c0-0.3,0.2-0.7,0.7-0.7c1,0,2.9,0,2.3,0v-3c0,0-1.6,0-3.3,0C79,40,78,41.3,78,42.8  V45h-2v3h2V56z"
   id="path3034" />

<path
   d="m 164,20 c -1.1,0 -2,0.9 -2,2 0,1.1 0.9,2 2,2 1.1,0 2,-0.9 2,-2 0.1,-1 -0.9,-2 -2,-2 z m -2,-6.6 v 3.1 c 4.2,0 7.5,3.6 7.5,7.5 h 3.1 c 0,-5.8 -4.8,-10.6 -10.6,-10.6 z M 162,8 v 3.1 c 7.1,0 12.9,5.8 12.9,12.9 H 178 C 178,15.2 170.8,8 162,8 z"
   id="path3038"
   inkscape:connector-curvature="0"
   style="fill:#383838" />
<path
   d="m 142.8,17.1 c -0.6,0 -1.1,0.7 -1.1,1.6 0,0.9 0.5,1.6 1.1,1.6 0.6,0 1.1,-0.7 1.1,-1.6 0,-0.9 -0.5,-1.6 -1.1,-1.6 z m 3.9,-4 c 0.1,-0.3 0.1,-2.1 -0.6,-3.8 0,0 -1.6,0.2 -4,1.8 -0.5,-0.1 -1.3,-0.2 -2.2,-0.2 -0.9,0 -1.7,0.1 -2.2,0.2 -2.4,-1.6 -4,-1.8 -4,-1.8 -0.7,1.7 -0.7,3.5 -0.6,3.8 -0.6,0.8 -1.1,1.9 -1.1,3.3 0,6.2 5.2,6.3 6.5,6.3 0.3,0 0.9,0 1.5,0 0.6,0 1.2,0 1.5,0 1.3,0 6.5,-0.1 6.5,-6.3 0,-1.4 -0.5,-2.5 -1.3,-3.3 z m -6.7,8.9 0,0 c -3.3,0 -5.9,-0.4 -5.9,-3.6 0,-0.8 0.3,-1.5 0.9,-2.1 1.1,-1 2.9,-0.5 4.9,-0.5 l 0,0 0,0 c 2.1,0 3.9,-0.5 4.9,0.5 0.6,0.6 0.9,1.3 0.9,2.1 0.2,3.2 -2.4,3.6 -5.7,3.6 z m -2.8,-4.9 c -0.6,0 -1.1,0.7 -1.1,1.6 0,0.9 0.5,1.6 1.1,1.6 0.6,0 1.1,-0.7 1.1,-1.6 0.1,-0.9 -0.4,-1.6 -1.1,-1.6 z"
   id="path3040"
   inkscape:connector-curvature="0"
   style="fill:#383838" />
<path
   d="m 109.1,11.8 c -0.2,-1.7 -1.4,-3 -2.5,-3 -1.1,0 -2,1.3 -1.8,2.9 0.2,1.7 1.4,3 2.5,3.1 1.1,0 1.9,-1.4 1.8,-3 z m -1.9,6.2 c -1.8,0 -3.4,1.1 -3.4,2.6 0,1.5 1.3,2.6 3,2.6 2.5,0 3.4,-1.1 3.4,-2.6 0,-0.2 0,-0.3 -0.1,-0.5 -0.2,-0.8 -0.9,-1.2 -1.8,-1.9 C 108,18.1 107.6,18 107.2,18 z m 2,-9.2 c 1,0.4 1.5,1.6 1.5,2.9 0,1 -0.6,1.9 -1.3,2.6 -0.7,0.6 -0.9,0.9 -0.9,1.4 0,0.5 0.8,1.2 1.2,1.5 1.2,1 1.6,1.8 1.6,3.2 0,1.8 -1.6,3.6 -4.5,3.6 -2.6,0 -4.7,-1.1 -4.7,-2.9 0,-1.8 2,-3.6 4.5,-3.6 h 0.8 c -0.3,-0.4 -0.6,-0.8 -0.6,-1.4 0,-0.3 0.1,-0.6 0.2,-1 -0.2,0 -0.3,0 -0.4,0 -2.1,0 -3.5,-1.6 -3.5,-3.6 0,-1.9 1.9,-3.6 4,-3.6 h 4.6 l -1,0.8 -1.5,0.1 0,0 z M 117,12 h -2 v 2 h -1 v -2 h -2 v -1 h 2 V 9 h 1 v 2 h 2 v 1 z"
   id="path3042"
   inkscape:connector-curvature="0"
   style="fill:#383838" />
<path
   fill="#FFFFFF"
   d="M24,43c-0.6,0.3-1.2,0.4-1.9,0.5c0.7-0.4,1.2-1,1.4-1.8c-0.6,0.4-1.3,0.6-2.1,0.8c-0.6-0.6-1.5-1-2.4-1  c-1.8,0-3.3,1.5-3.3,3.3c0,0.3,0,0.5,0.1,0.7c-2.7-0.1-5.1-1.4-6.8-3.4c-0.3,0.5-0.4,1-0.4,1.7c0,1.1,0.6,2.1,1.5,2.7  c-0.5,0-1-0.2-1.5-0.4l0,0c0,1.6,1.1,2.9,2.6,3.2c-0.4,0.3-1,0.3-1.5,0c0.4,1.3,1.6,2.3,3.1,2.3c-1.1,0.9-2.5,1.4-4.1,1.4  c-0.3,0-0.5,0-0.8,0c1.5,0.9,3.2,1.5,5,1.5c6,0,9.3-5,9.3-9.3c0-0.1,0-0.3,0-0.4C23,44.3,23.6,43.7,24,43z"
   id="path3044" />
<path
   fill="#FFFFFF"
   d="M112,56c-4.4,0-8-3.6-8-8s3.6-8,8-8s8,3.6,8,8S116.4,56,112,56z M118.7,49.1c-0.2-0.1-2.1-0.6-4.3-0.3  c0.9,2.5,1.1,3.7,1.3,4.9C117.4,52.6,118.4,51,118.7,49.1z M114.7,54.3c-0.2-1.2-0.5-2.7-1.5-5.2l0,0c-3.9,1.3-5.2,4-5.4,4.3  C109.4,54.7,112,55.2,114.7,54.3z M106.9,52.6c1.6-3.1,5.8-4.6,5.9-4.6c-0.2-0.4-0.4-0.8-0.6-1.2c-3.4,1-6.7,1-7,1  C105.1,49.7,105.8,51.4,106.9,52.6z M105.3,46.6c0.3,0,3.1,0,6.3-0.8c-1.1-2-2.3-3.7-2.5-4C107.2,42.7,105.8,44.5,105.3,46.6z   M110.4,41.4c0.2,0.3,1.4,1.9,2.5,4c2.4-0.9,3.5-2.3,3.6-2.5C115.3,41.8,113,40.9,110.4,41.4z M117.3,43.7c-0.1,0.2-1.3,1.7-3.8,2.7  c0.2,0.3,0.4,0.9,0.6,1.4c2.3-0.3,4,0,4.8,0.2C118.9,46.2,118.2,44.8,117.3,43.7z"
   id="path3046" />
<path
   fill="#FFFFFF"
   d="M170,52c-1.1,0-2,0.9-2,2s0.9,2,2,2s2-0.9,2-2C172.1,53,171.1,52,170,52z M168,45.4v3.1  c4.2,0,7.5,3.6,7.5,7.5h3.1C178.6,50.2,173.8,45.4,168,45.4z M168,40v3.1c7.1,0,12.9,5.8,12.9,12.9h3.1C184,47.2,176.8,40,168,40z"
   id="path3048" />
<path
   fill="#FFFFFF"
   d="M50.8,49.1c-0.6,0-1.1,0.7-1.1,1.6c0,0.9,0.5,1.6,1.1,1.6s1.1-0.7,1.1-1.6C51.9,49.8,51.4,49.1,50.8,49.1z   M54.7,45.1c0.1-0.3,0.1-2.1-0.6-3.8c0,0-1.6,0.2-4,1.8c-0.5-0.1-1.3-0.2-2.2-0.2s-1.7,0.1-2.2,0.2c-2.4-1.6-4-1.8-4-1.8  C41,43,41,44.8,41.1,45.1C40.5,45.9,40,47,40,48.4c0,6.2,5.2,6.3,6.5,6.3c0.3,0,0.9,0,1.5,0s1.2,0,1.5,0c1.3,0,6.5-0.1,6.5-6.3  C56,47,55.5,45.9,54.7,45.1z M48,54L48,54c-3.3,0-5.9-0.4-5.9-3.6c0-0.8,0.3-1.5,0.9-2.1c1.1-1,2.9-0.5,4.9-0.5l0,0l0,0  c2.1,0,3.9-0.5,4.9,0.5c0.6,0.6,0.9,1.3,0.9,2.1C53.9,53.6,51.3,54,48,54z M45.2,49.1c-0.6,0-1.1,0.7-1.1,1.6c0,0.9,0.5,1.6,1.1,1.6  s1.1-0.7,1.1-1.6C46.4,49.8,45.9,49.1,45.2,49.1z"
   id="path3050" />
<path
   fill="#FFFFFF"
   d="M143.1,43.8c-0.2-1.7-1.4-3-2.5-3s-2,1.3-1.8,2.9c0.2,1.7,1.4,3,2.5,3.1C142.4,46.8,143.2,45.4,143.1,43.8z   M141.2,50c-1.8,0-3.4,1.1-3.4,2.6c0,1.4,1.3,2.6,3,2.6c2.5,0,3.4-1.1,3.4-2.6c0-0.2,0-0.3-0.1-0.5c-0.2-0.8-0.9-1.2-1.8-1.9  C142,50.1,141.6,50,141.2,50z M143.2,40.8c1,0.4,1.5,1.6,1.5,2.9c0,1-0.6,1.9-1.3,2.6c-0.7,0.6-0.9,0.9-0.9,1.4s0.8,1.2,1.2,1.5  c1.2,1,1.6,1.8,1.6,3.2c0,1.8-1.6,3.6-4.5,3.6c-2.6,0-4.7-1.1-4.7-2.9c0-1.8,2-3.6,4.5-3.6h0.8c-0.3-0.4-0.6-0.8-0.6-1.4  c0-0.3,0.1-0.6,0.2-1c-0.2,0-0.3,0-0.4,0c-2.1,0-3.5-1.6-3.5-3.6c0-1.9,1.9-3.6,4-3.6h4.6l-1,0.8L143.2,40.8L143.2,40.8z M151,44h-2  v2h-1v-2h-2v-1h2v-2h1v2h2V44z"
   id="path3052" />

<path
   fill="#FFFFFF"
   d="M204,49c0,0.6,0.4,1,1,1s1-0.4,1-1s-0.4-1-1-1S204,48.4,204,49z M210,49c0,0.6,0.4,1,1,1s1-0.4,1-1  s-0.4-1-1-1S210,48.4,210,49z M210,51.1c0.3-0.2,0.6-0.2,0.8,0.1c0.2,0.3,0.2,0.6-0.1,0.8c-0.7,0.6-1.8,0.9-2.8,0.9  c-1,0-2.1-0.4-2.8-0.9c-0.3-0.2-0.3-0.6-0.1-0.8c0.2-0.3,0.6-0.3,0.8-0.1c0.4,0.3,1.2,0.7,2,0.7S209.6,51.5,210,51.1z M216,47  c0-1.1-0.9-2-2-2c-0.8,0-1.4,0.4-1.7,1c-1-0.6-2.3-0.9-3.6-1l1.2-2.7l2.3,0.7c0.2,0.6,0.8,1,1.4,1c0.8,0,1.5-0.7,1.5-1.5  s-0.7-1.5-1.5-1.5c-0.6,0-1.1,0.3-1.3,0.8l-2.5-0.7c-0.3-0.1-0.6,0.1-0.7,0.3l-1.6,3.6c-1.3,0.1-2.6,0.5-3.6,1c-0.3-0.6-1-1-1.7-1  c-1.1,0-2,0.9-2,2c0,0.8,0.5,1.5,1.2,1.8c-0.1,0.4-0.2,0.8-0.2,1.2c0,2.8,3.1,5,7,5s7-2.2,7-5c0-0.4-0.1-0.8-0.2-1.2  C215.5,48.5,216,47.8,216,47z M213.5,41.9c0.3,0,0.6,0.3,0.6,0.6s-0.3,0.6-0.6,0.6s-0.6-0.3-0.6-0.6S213.2,41.9,213.5,41.9z M201,47  c0-0.6,0.4-1,1-1c0.4,0,0.7,0.2,0.9,0.6c-0.5,0.4-1,0.9-1.3,1.4C201.3,47.8,201,47.4,201,47z M208,53.8c-3.2,0-5.8-1.7-5.8-3.8  s2.6-3.8,5.8-3.8s5.8,1.7,5.8,3.8S211.2,53.8,208,53.8z M214.4,47.9c-0.3-0.5-0.8-1-1.3-1.4c0.2-0.3,0.5-0.6,0.9-0.6  c0.6,0,1,0.4,1,1C215,47.4,214.7,47.8,214.4,47.9z"
   id="path3056" />
<path
   style="fill:#333333"
   inkscape:connector-curvature="0"
   d="m 84.92092,8.1413336 h -9.54317 c -1.69215,0 -3.07642,1.3842665 -3.07642,3.0752084 v 9.545583 c 0,1.690943 1.38427,3.075209 3.07642,3.075209 h 9.54317 c 1.69215,0 3.07641,-1.384266 3.07641,-3.075209 v -9.545583 c 0,-1.6909419 -1.38426,-3.0752084 -3.07641,-3.0752084 z m -0.58015,9.1181694 c 0.85966,0.796873 1.03835,1.185048 1.06733,1.233343 0.35618,0.591015 -0.39361,0.637499 -0.39361,0.637499 l -1.43498,0.01932 c 0,0 -0.30909,0.06158 -0.71477,-0.217329 -0.53668,-0.367045 -1.04258,-1.324501 -1.43679,-1.20014 -0.39964,0.126775 -0.38757,0.988848 -0.38757,0.988848 0,0 0.002,0.122549 -0.0881,0.221555 -0.0984,0.103835 -0.29218,0.0652 -0.29218,0.0652 h -0.64112 c 0,0 -1.41687,0.14549 -2.6647,-1.153052 -1.36072,-1.416866 -2.56207,-4.198076 -2.56207,-4.198076 0,0 -0.0688,-0.169034 0.006,-0.258381 0.0851,-0.100213 0.31513,-0.09901 0.31513,-0.09901 l 1.53458,-0.006 c 0,0 0.14428,0.02596 0.24812,0.102024 0.0857,0.06278 0.13341,0.181108 0.13341,0.181108 0,0 0.24812,0.62784 0.57653,1.19531 0.64112,1.107776 0.93995,1.35046 1.15728,1.231533 0.31754,-0.17326 0.22216,-1.565978 0.22216,-1.565978 0,0 0.006,-0.505894 -0.15998,-0.731072 -0.12798,-0.174467 -0.36946,-0.225781 -0.47631,-0.239665 -0.0869,-0.01147 0.0549,-0.211896 0.23906,-0.301847 0.27649,-0.135227 0.76427,-0.142471 1.3408,-0.137038 0.44854,0.0042 0.57834,0.0326 0.75341,0.07486 0.52943,0.127379 0.34953,0.621199 0.34953,1.804436 0,0.379119 -0.0682,0.912179 0.20526,1.089061 0.11772,0.07607 0.40568,0.01147 1.12408,-1.209799 0.34108,-0.578941 0.59584,-1.259302 0.59584,-1.259302 0,0 0.0567,-0.121342 0.14247,-0.17326 0.0887,-0.05312 0.20888,-0.03683 0.20888,-0.03683 l 1.61608,-0.01026 c 0,0 0.48537,-0.05795 0.56385,0.161186 0.0833,0.230007 -0.18171,0.766689 -0.84155,1.646269 -1.08543,1.444636 -1.20497,1.310616 -0.30607,2.145523 z"
   id="path3074" /></svg>